<svg width="100%" height="100%" viewBox="0 0 24 24" version="1.1" xmlns="http://www.w3.org/2000/svg" xmlns:xlink="http://www.w3.org/1999/xlink" xml:space="preserve" xmlns:serif="http://www.serif.com/" style="fill-rule:evenodd;clip-rule:evenodd;stroke-linejoin:round;stroke-miterlimit:2;">
    <g transform="matrix(1,0,0,1,-30,-64)">
        <g id="Letter-Avatar" serif:id="Letter Avatar" transform="matrix(0.24,0,0,0.24,29.52,64.24)">
            <rect x="2" y="-1" width="100" height="100" style="fill:none;"/>
            <clipPath id="_clip1">
                <rect x="2" y="-1" width="100" height="100"/>
            </clipPath>
            <g clip-path="url(#_clip1)">
                <g transform="matrix(50,0,0,50,2,-1)">
                    <rect x="0" y="0" width="2" height="2" style="fill:rgb(144,190,109);"/>
                </g>
                <g transform="matrix(4.166667,0,0,4.166667,-124.236979,-268.217532)">
                    <path d="M38,82C38.05,79.895 39.986,78.906 42,79C44.014,79.094 46.387,79.572 47,81.632C47.084,81.916 42,83 42,83C42,83 37.994,82.26 38,82Z" style="fill-opacity:0.4;"/>
                </g>
                <g transform="matrix(4.166667,0,0,4.166667,-131.333333,-271.833333)">
                    <path d="M40.998,70.103C41.918,69.702 42.933,69.479 44,69.479C48.151,69.479 51.521,72.849 51.521,77C51.521,81.151 48.151,84.521 44,84.521C39.849,84.521 36.479,81.151 36.479,77C36.479,76.013 36.67,75.069 37.016,74.205L37.244,74.327L37.754,75.274C37.602,75.824 37.521,76.403 37.521,77C37.521,80.576 40.424,83.479 44,83.479C47.576,83.479 50.479,80.576 50.479,77C50.479,73.424 47.576,70.521 44,70.521C43.292,70.521 42.611,70.635 41.973,70.845L41.163,70.408L40.998,70.103Z"/>
                </g>
                <g transform="matrix(4.166667,0,0,4.166667,-127.166667,-268.217532)">
                    <path d="M43,72.479C44.391,72.479 45.521,73.609 45.521,75C45.521,76.391 44.391,77.521 43,77.521C41.609,77.521 40.479,76.391 40.479,75C40.479,73.609 41.609,72.479 43,72.479ZM43,73.521C42.184,73.521 41.521,74.184 41.521,75C41.521,75.816 42.184,76.479 43,76.479C43.816,76.479 44.479,75.816 44.479,75C44.479,74.184 43.816,73.521 43,73.521Z"/>
                </g>
                <g transform="matrix(4.166667,0,0,4.166667,-124.236979,-268.217532)">
                    <path d="M38.75,81.837C38.641,82.103 38.337,82.231 38.071,82.123C37.804,82.014 37.676,81.71 37.785,81.444C38.484,79.725 40.327,78.479 42.5,78.479C44.611,78.479 46.411,79.656 47.153,81.298C47.271,81.56 47.154,81.869 46.892,81.987C46.63,82.105 46.322,81.989 46.203,81.727C45.616,80.425 44.173,79.521 42.5,79.521C40.78,79.521 39.303,80.477 38.75,81.837Z"/>
                </g>
                <g transform="matrix(2.97619,0,0,2.97619,-76.617931,-183.098484)">
                    <path d="M37.142,67.654L38.263,69.737L40.346,70.858C40.582,70.985 40.729,71.232 40.729,71.5C40.729,71.768 40.582,72.015 40.346,72.142L38.263,73.263L37.142,75.346C37.015,75.582 36.768,75.729 36.5,75.729C36.232,75.729 35.985,75.582 35.858,75.346L34.737,73.263L32.654,72.142C32.418,72.015 32.271,71.768 32.271,71.5C32.271,71.232 32.418,70.985 32.654,70.858L34.737,69.737L35.858,67.654C35.985,67.418 36.232,67.271 36.5,67.271C36.768,67.271 37.015,67.418 37.142,67.654ZM36.5,69.538L35.917,70.621C35.849,70.746 35.746,70.849 35.621,70.917L34.538,71.5L35.621,72.083C35.746,72.151 35.849,72.254 35.917,72.379L36.5,73.462L37.083,72.379C37.151,72.254 37.254,72.151 37.379,72.083L38.462,71.5L37.379,70.917C37.254,70.849 37.151,70.746 37.083,70.621L36.5,69.538Z" style="fill-opacity:0.4;"/>
                </g>
                <g transform="matrix(4.166667,0,0,4.166667,-128.403645,-268.217532)">
                    <circle cx="43" cy="75" r="2" style="fill-opacity:0.4;"/>
                </g>
            </g>
        </g>
        <g id="Colors">
        </g>
    </g>
</svg>
